<svg xmlns="http://www.w3.org/2000/svg" viewBox="0 0 500 500"><defs><style>.cls-1{fill:#fff;}</style></defs><title>Asset 1</title><g id="Layer_2" data-name="Layer 2"><g id="Layer_1-2" data-name="Layer 1"><path d="M500,250.82q0,112.07,0,224.11c0,19.6-5.35,25.05-24.65,25.05Q250,500,24.66,500C5.62,500,0,494.5,0,475.75Q0,250,0,24.25C0,5.76,5.64,0,23.84,0Q250,0,476.16,0C494.35,0,500,5.76,500,24.25Q500,137.53,500,250.82ZM249.19,467.93q93.58,0,187.15,0c26.69,0,31.58-4.95,31.58-31.61q0-185.51,0-371a105.25,105.25,0,0,0-.3-10.66c-1.78-17-6.83-21.71-23.93-22.51-1.91-.08-3.83-.05-5.74-.05q-187.14,0-374.29.06a121.65,121.65,0,0,0-17.12,1.51c-7,1-11.35,5.32-12.78,12.13a67.72,67.72,0,0,0-1.61,13.81q-.13,189.6,0,379.21c0,23.56,5.69,29,29.12,29.12h188Z"/><path class="cls-1" d="M249.19,467.93h-188c-23.43-.1-29.1-5.56-29.12-29.12q-.11-189.6,0-379.21a67.72,67.72,0,0,1,1.61-13.81C35.19,39,39.55,34.64,46.54,33.65a121.65,121.65,0,0,1,17.12-1.51Q250.8,32,438,32.08c1.91,0,3.83,0,5.74.05,17.1.8,22.15,5.5,23.93,22.51a105.25,105.25,0,0,1,.3,10.66q0,185.51,0,371c0,26.66-4.89,31.59-31.58,31.61Q342.77,468,249.19,467.93Zm-198-218.75q0,84.51,0,169a104.53,104.53,0,0,0,1.08,14.68c1.09,7.58,6,12.26,13.06,14.24a49,49,0,0,0,13,1.63q171.91.12,343.83,0a68.28,68.28,0,0,0,9.78-.82c8.59-1.24,13.79-6.47,15.62-14.7a63.9,63.9,0,0,0,1.27-13.82q.09-169.45,0-338.91a92,92,0,0,0-1-13c-1.12-7.92-6.1-12.78-13.55-14.77a51.3,51.3,0,0,0-13-1.51q-171.49-.11-343,0a71.45,71.45,0,0,0-9.79.74c-8.94,1.21-14.32,6.56-16.12,15.18A68,68,0,0,0,51.21,81Q51.09,165.07,51.16,249.18Z"/><path d="M51.16,249.18q0-84.12.05-168.23a68,68,0,0,1,1.17-13.83c1.8-8.62,7.18-14,16.12-15.18a71.45,71.45,0,0,1,9.79-.74q171.51-.06,343,0a51.3,51.3,0,0,1,13,1.51c7.45,2,12.43,6.85,13.55,14.77a92,92,0,0,1,1,13q.07,169.46,0,338.91a63.9,63.9,0,0,1-1.27,13.82c-1.83,8.23-7,13.46-15.62,14.7a68.28,68.28,0,0,1-9.78.82q-171.92.06-343.83,0a49,49,0,0,1-13-1.63c-7.09-2-12-6.66-13.06-14.24a104.53,104.53,0,0,1-1.08-14.68Q51.1,333.7,51.16,249.18Zm199.7-164.7q-70.58,0-141.15,0c-19.47,0-25.2,5.6-25.21,24.72Q84.43,250,84.5,390.7c0,19.18,5.71,24.79,25.14,24.8q140.32.06,280.65,0c19.72,0,25.21-5.57,25.22-25.55q0-139.9,0-279.83c0-20.26-5.45-25.61-26-25.63Q320.21,84.43,250.86,84.48Z"/><path class="cls-1" d="M250.86,84.48q69.34,0,138.68,0c20.52,0,26,5.37,26,25.63q0,139.92,0,279.83c0,20-5.5,25.54-25.22,25.55q-140.33.06-280.65,0c-19.43,0-25.13-5.62-25.14-24.8q-.06-140.74,0-281.48c0-19.12,5.74-24.7,25.21-24.72Q180.28,84.41,250.86,84.48ZM250,254.57c-1.85-2.74-2.69-3.79-3.32-4.95-22.2-40.55-44.48-81-66.44-121.71-3.14-5.8-6.77-8.43-13.46-8.18-12,.45-24.08.11-36.12.13-12.37,0-12.41,0-12.41,12.18q0,96.86,0,193.72c0,16.42.14,32.84-.06,49.25-.06,5.88,2.13,8.53,8.17,8.37,8.47-.23,17,0,25.44-.05,11,0,11.34-.35,11.34-11.73q0-95.22,0-190.43V172.6a7.57,7.57,0,0,1,4,3.69q28.19,52.38,56.32,104.79c12.63,23.58,6.12,19.3,34.27,19.9,5.62.12,8.92-1.94,11.6-7,17.21-32.66,34.72-65.17,52.17-97.71,4.57-8.52,9.28-17,13.92-25.47,1.38,18.65,1.38,36.91,1.38,55.17,0,49,.11,98-.12,146.93,0,7.64,2.21,11.08,10.28,10.56,7.9-.52,15.86-.08,23.79-.12,10.64-.06,11-.38,11-11.18q0-81.25,0-162.53c0-26.54-.24-53.08.13-79.62.12-8-2.73-10.55-10.49-10.27-13.12.47-26.27.33-39.39,0-5.68-.12-8.95,2.09-11.63,7-15.36,28.39-31,56.63-46.56,84.89C266.19,225.54,258.48,239.33,250,254.57Z"/><path d="M250,254.57c8.47-15.24,16.18-29,23.8-42.87,15.58-28.26,31.2-56.5,46.56-84.89,2.68-5,5.95-7.16,11.63-7,13.12.29,26.27.43,39.39,0,7.76-.28,10.61,2.3,10.49,10.27-.37,26.54-.14,53.08-.13,79.62q0,81.27,0,162.53c0,10.8-.36,11.12-11,11.18-7.93,0-15.89-.4-23.79.12-8.07.52-10.32-2.92-10.28-10.56.23-49,.12-98,.12-146.93,0-18.26,0-36.52-1.38-55.17-4.64,8.49-9.35,17-13.92,25.47-17.45,32.54-35,65.05-52.17,97.71-2.68,5.07-6,7.13-11.6,7-28.15-.6-21.64,3.68-34.27-19.9q-28.08-52.44-56.32-104.79a7.57,7.57,0,0,0-4-3.69v8.57q0,95.21,0,190.43c0,11.38-.34,11.69-11.34,11.73-8.48,0-17-.18-25.44.05-6,.16-8.23-2.49-8.17-8.37.2-16.41.06-32.83.06-49.25q0-96.85,0-193.72c0-12.15,0-12.16,12.41-12.18,12,0,24.09.32,36.12-.13,6.69-.25,10.32,2.38,13.46,8.18,22,40.67,44.24,81.16,66.44,121.71C247.32,250.78,248.16,251.83,250,254.57Z"/></g></g></svg>